<svg xmlns="http://www.w3.org/2000/svg" version="1.1" xmlns:xlink="http://www.w3.org/1999/xlink" xmlns:svgjs="http://svgjs.dev/svgjs" width="1500" height="215" viewBox="0 0 1500 215"><g transform="matrix(1,0,0,1,-0.9090909090909918,-0.476717185517856)"><svg viewBox="0 0 396 57" data-background-color="#ffffff" preserveAspectRatio="xMidYMid meet" height="215" width="1500" xmlns="http://www.w3.org/2000/svg" xmlns:xlink="http://www.w3.org/1999/xlink"><g id="tight-bounds" transform="matrix(1,0,0,1,0.2400000000000091,0.12638548639310443)"><svg viewBox="0 0 395.52 56.74722902721381" height="56.74722902721381" width="395.52"><g><svg viewBox="0 0 475.37528913546674 68.20446603572087" height="56.74722902721381" width="395.52"><g transform="matrix(1,0,0,1,0,9.426232281347822)"><svg viewBox="0 0 395.52 49.352001473025226" height="49.352001473025226" width="395.52"><g id="textblocktransform"><svg viewBox="0 0 395.52 49.352001473025226" height="49.352001473025226" width="395.52" id="textblock"><g><svg viewBox="0 0 395.52 49.352001473025226" height="49.352001473025226" width="395.52"><g transform="matrix(1,0,0,1,0,0)"><svg width="395.52" viewBox="2.39 -36.79 397.75 49.629999999999995" height="49.352001473025226" data-palette-color="#7dd3fc"><path d="M32.5-24.34L32.5-24.34Q32.5-22.44 31.88-20.81 31.27-19.19 30.13-17.83 28.98-16.48 27.34-15.38 25.71-14.28 23.66-13.45L23.66-13.45 34.45-0.1 23.14 1.15 16.04-11.3Q15.28-11.16 14.48-11.04 13.67-10.91 12.84-10.79L12.84-10.79Q13.04-8.28 13.32-5.54 13.6-2.81 13.94 0.29L13.94 0.29 2.39 1.1Q2.88-5.18 3.16-11.39 3.44-17.6 3.44-23.9L3.44-23.9Q3.44-25.54 3.43-26.88 3.42-28.22 3.38-29.49 3.34-30.76 3.27-32.1 3.2-33.45 3.1-35.11L3.1-35.11Q6.05-36.01 9.12-36.4 12.18-36.79 15.45-36.79L15.45-36.79Q17.09-36.79 18.99-36.57 20.9-36.35 22.79-35.82 24.68-35.28 26.43-34.38 28.17-33.47 29.53-32.08 30.88-30.69 31.69-28.78 32.5-26.88 32.5-24.34ZM12.21-31.64L12.21-31.64Q12.21-27.64 12.27-23.91 12.33-20.19 12.55-16.26L12.55-16.26 13.55-16.26Q15.7-16.26 17.87-16.38 20.04-16.5 22-16.85L22-16.85Q22.34-18.16 22.5-19.86 22.66-21.56 22.66-23.39L22.66-23.39Q22.66-24.56 22.58-25.74 22.51-26.93 22.39-28.04 22.27-29.15 22.06-30.15 21.85-31.15 21.61-31.96L21.61-31.96Q21.26-32.01 20.81-32.03 20.36-32.06 19.8-32.06L19.8-32.06Q18.68-32.06 17.37-31.98 16.06-31.91 14.89-31.84L14.89-31.84Q13.55-31.74 12.21-31.64ZM53.54-25.71L63.69-25.29Q63.57-18.9 63.38-14.26 63.18-9.62 62.99-6.52L62.99-6.52Q62.77-2.91 62.55-0.44L62.55-0.44Q62.4 2.51 61.46 4.96 60.52 7.4 58.81 9.16 57.1 10.91 54.66 11.88 52.22 12.84 49.05 12.84L49.05 12.84Q46.92 12.84 45.33 12.59 43.75 12.33 42.56 11.83 41.38 11.33 40.54 10.6 39.69 9.86 39.06 8.9 38.43 7.93 37.95 6.74 37.47 5.54 37.03 4.15L37.03 4.15 45.99 3.96Q45.99 4.3 45.97 4.6 45.94 4.91 45.94 5.2L45.94 5.2Q45.94 7.03 46.24 8.74L46.24 8.74Q47.19 8.86 47.9 8.94 48.61 9.01 49.29 9.01L49.29 9.01Q50.22 9.01 51.19 8.89 52.17 8.76 53.54 8.54L53.54 8.54Q53.78 5.98 53.95 3.45 54.12 0.93 54.25-1.61L54.25-1.61Q53.22-1.17 52.28-0.94 51.34-0.71 50.63-0.59L50.63-0.59Q49.8-0.46 49.05-0.44L49.05-0.44Q45.51-0.44 43.21-1.33 40.92-2.22 39.51-3.85 38.11-5.47 37.46-7.75 36.81-10.03 36.57-12.79 36.33-15.55 36.33-18.71 36.33-21.88 36.25-25.29L36.25-25.29 46.24-24.61Q46.04-22.31 45.92-20.04 45.8-17.77 45.8-15.5L45.8-15.5Q45.8-13.16 45.92-10.85 46.04-8.54 46.24-6.25L46.24-6.25Q47.14-6.18 47.92-6.16 48.7-6.15 49.48-6.15L49.48-6.15Q50.78-6.15 51.99-6.19 53.2-6.23 54.39-6.35L54.39-6.35Q54.44-7.13 54.44-7.95 54.44-8.76 54.44-9.55L54.44-9.55Q54.44-13.62 54.23-17.65 54.03-21.68 53.54-25.71L53.54-25.71ZM95.89 0.29L88.03 0.81Q88.03 0.1 88.01-0.62 87.98-1.34 87.98-2.05L87.98-2.05Q86.69-0.88 85.29-0.28 83.88 0.32 82.71 0.61L82.71 0.61Q81.34 0.95 80 1L80 1Q77.56 1 75.3 0.26 73.04-0.49 71.28-1.98 69.53-3.47 68.44-5.7 67.35-7.93 67.23-10.89L67.23-10.89Q67.23-13.87 68.04-16.32 68.84-18.77 70.45-20.53 72.07-22.29 74.46-23.25 76.85-24.22 80-24.24L80-24.24Q80.1-24.24 80.74-24.21 81.39-24.17 82.34-23.99 83.3-23.8 84.42-23.4 85.54-23 86.64-22.29L86.64-22.29 86.25-25.29 95.89-25.95Q95.6-18.95 95.6-12.01L95.6-12.01Q95.6-10.33 95.61-8.83 95.62-7.32 95.66-5.85 95.7-4.37 95.76-2.87 95.82-1.37 95.89 0.29L95.89 0.29ZM76.63-5.1L76.63-5.1Q79.54-5.22 82.34-5.49 85.15-5.76 87.89-6.3L87.89-6.3Q87.81-9.33 87.63-12.16 87.45-14.99 87.13-17.94L87.13-17.94 85.74-17.94Q83.37-17.94 80.99-17.79 78.61-17.63 76.19-17.26L76.19-17.26Q75.9-14.7 75.9-12.11L75.9-12.11Q75.9-11.13 75.95-10.29 76-9.45 76.08-8.62 76.17-7.79 76.3-6.93 76.44-6.08 76.63-5.1ZM127.24-12.74L127.24-12.74Q127.24-9.5 126.9-6.13 126.56-2.76 125.72 0.61L125.72 0.61 117.23 0.61Q117.55-3.03 117.72-6.58 117.89-10.13 117.89-13.75L117.89-13.75Q117.89-14.97 117.89-16.17 117.89-17.38 117.84-18.6L117.84-18.6Q116.74-18.73 115.67-18.76 114.59-18.8 113.49-18.8L113.49-18.8Q111.42-18.8 109.22-18.65L109.22-18.65Q109.15-16.65 109.11-14.94 109.07-13.23 109.07-11.55L109.07-11.55Q109.07-10.3 109.1-9.02 109.12-7.74 109.18-6.27 109.25-4.81 109.34-3.11 109.44-1.42 109.59 0.61L109.59 0.61 101.38 0.61Q101.38-2.32 101.36-4.57 101.34-6.81 101.29-8.7 101.24-10.6 101.15-12.32 101.07-14.04 100.94-15.93 100.82-17.82 100.68-20.06 100.53-22.29 100.33-25.2L100.33-25.2 109.59-25.76 109.39-22.29Q110.78-23.27 112.25-23.8 113.71-24.34 114.93-24.61L114.93-24.61Q116.35-24.9 117.69-24.95L117.69-24.95Q119.47-24.95 120.88-24.46 122.28-23.97 123.34-23.11 124.41-22.24 125.14-21.07 125.87-19.9 126.35-18.54 126.82-17.19 127.03-15.7 127.24-14.21 127.24-12.74ZM173.84-36.55L173.84-29.76Q172.03-29.76 170.19-29.79 168.35-29.81 166.44-29.81L166.44-29.81 164.29-29.81Q164.29-22.29 164.39-14.75 164.49-7.2 164.9 0.34L164.9 0.34 153.8 0.34Q154.04-5.18 154.28-10.6L154.28-10.6Q154.38-12.89 154.48-15.41 154.58-17.92 154.68-20.41 154.77-22.9 154.83-25.26 154.89-27.61 154.94-29.64L154.94-29.64Q152.14-29.57 149.41-29.47 146.69-29.37 143.93-29.25L143.93-29.25 143.93-36.55Q147.79-36.4 151.59-36.35 155.38-36.3 159.24-36.3L159.24-36.3Q162.95-36.3 166.59-36.35 170.23-36.4 173.84-36.55L173.84-36.55ZM202.06-12.3L202.06-11.45 182.97-9.91Q183.09-8.4 183.31-6.91 183.53-5.42 183.87-3.91L183.87-3.91Q186.02-3.76 188.02-3.76L188.02-3.76Q189.12-3.76 190.15-3.8 191.17-3.83 192.27-3.91L192.27-3.91Q192.32-4.39 192.34-4.88 192.37-5.37 192.37-5.86L192.37-5.86Q192.37-6.3 192.36-6.73 192.34-7.15 192.27-7.59L192.27-7.59 201.47-7.4Q200.79-5.08 199.51-3.42 198.23-1.76 196.48-0.7 194.74 0.37 192.59 0.85 190.44 1.34 188.07 1.34L188.07 1.34Q185.17 1.34 182.61 0.56 180.06-0.22 178.17-1.97 176.28-3.71 175.19-6.52 174.11-9.33 174.11-13.4L174.11-13.4Q174.11-16.7 175.25-19.07 176.4-21.44 178.32-22.97 180.23-24.51 182.76-25.23 185.29-25.95 188.07-25.95L188.07-25.95Q190.98-25.95 193.53-25.17 196.08-24.39 197.97-22.73 199.86-21.07 200.96-18.48 202.06-15.89 202.06-12.3L202.06-12.3ZM182.72-15.04L182.72-15.04 192.51-15.04Q192.51-18.07 191.9-20.8L191.9-20.8Q189.8-21.24 187.51-21.24L187.51-21.24Q185.26-21.24 182.97-20.8L182.97-20.8Q182.82-19.43 182.77-18.03 182.72-16.63 182.72-15.04ZM231.87-16.21L222.1-16.21Q222.22-16.8 222.27-17.4 222.32-17.99 222.32-18.6L222.32-18.6Q222.32-19.17 222.27-19.7 222.22-20.24 222.1-20.8L222.1-20.8Q221.05-21 219.98-21.07 218.9-21.14 217.76-21.14L217.76-21.14Q216.63-21.14 215.49-21.07 214.34-21 213.17-20.8L213.17-20.8Q213.04-19.48 212.98-18.21 212.92-16.94 212.92-15.65L212.92-15.65Q212.92-12.67 213.23-9.75 213.53-6.84 214.07-3.91L214.07-3.91Q215.17-3.78 216.18-3.75 217.19-3.71 218.27-3.71L218.27-3.71Q219.32-3.71 220.34-3.75 221.37-3.78 222.47-3.91L222.47-3.91Q222.52-4.42 222.54-4.91 222.57-5.4 222.57-5.86L222.57-5.86Q222.57-6.3 222.54-6.74 222.52-7.18 222.47-7.59L222.47-7.59 231.67-7.4Q230.99-5.08 229.71-3.42 228.42-1.76 226.68-0.7 224.93 0.37 222.79 0.85 220.64 1.34 218.27 1.34L218.27 1.34Q215.36 1.34 212.81 0.56 210.26-0.22 208.37-1.97 206.48-3.71 205.39-6.52 204.3-9.33 204.3-13.4L204.3-13.4Q204.3-16.7 205.45-19.07 206.6-21.44 208.52-22.97 210.43-24.51 212.96-25.23 215.49-25.95 218.27-25.95L218.27-25.95Q220.73-25.95 222.96-25.38 225.18-24.8 226.97-23.62 228.77-22.44 230.04-20.59 231.31-18.75 231.87-16.21L231.87-16.21ZM261.53-13.75L261.53-13.75Q261.53-10.5 261.19-7.13 260.84-3.76 260.01-0.39L260.01-0.39 251.52-0.39Q251.81-4.03 251.99-7.58 252.18-11.13 252.18-14.75L252.18-14.75Q252.18-15.97 252.18-17.18 252.18-18.38 252.13-19.6L252.13-19.6Q251.03-19.73 249.94-19.76 248.86-19.8 247.76-19.8L247.76-19.8Q245.56-19.8 243.36-19.65L243.36-19.65 243.36-16.5Q243.36-12.48 243.49-8.48 243.61-4.49 243.88-0.39L243.88-0.39 235.67-0.39Q235.67-9.23 235.43-17.9 235.19-26.56 234.62-35.3L234.62-35.3 243.88-35.84Q243.71-32.64 243.58-29.47 243.46-26.29 243.41-23.1L243.41-23.1Q244.83-24.17 246.34-24.74 247.86-25.32 249.1-25.59L249.1-25.59Q250.57-25.9 251.96-25.95L251.96-25.95Q253.74-25.95 255.14-25.46 256.55-24.98 257.61-24.11 258.67-23.24 259.42-22.07 260.16-20.9 260.64-19.54 261.11-18.19 261.32-16.7 261.53-15.21 261.53-13.75ZM306.64-6.81L306.64 0.85Q303.3 0.63 299.9 0.51 296.51 0.39 293.09 0.39L293.09 0.39Q290.18 0.39 287.28 0.49 284.37 0.59 281.4 0.85L281.4 0.85Q281.59-3.54 281.69-7.87 281.79-12.21 281.79-16.6L281.79-16.6Q281.79-21.51 281.69-26.38 281.59-31.25 281.4-36.01L281.4-36.01 292.19-36.01Q292.09-30.22 291.99-24.76L291.99-24.76Q291.94-22.41 291.92-19.92 291.89-17.43 291.86-15.01 291.82-12.6 291.81-10.39 291.8-8.18 291.8-6.4L291.8-6.4 306.64-6.81ZM337.06 0.29L329.2 0.81Q329.2 0.1 329.17-0.62 329.15-1.34 329.15-2.05L329.15-2.05Q327.85-0.88 326.45-0.28 325.05 0.32 323.87 0.61L323.87 0.61Q322.51 0.95 321.16 1L321.16 1Q318.72 1 316.46 0.26 314.21-0.49 312.45-1.98 310.69-3.47 309.6-5.7 308.52-7.93 308.4-10.89L308.4-10.89Q308.4-13.87 309.2-16.32 310.01-18.77 311.62-20.53 313.23-22.29 315.62-23.25 318.01-24.22 321.16-24.24L321.16-24.24Q321.26-24.24 321.91-24.21 322.56-24.17 323.51-23.99 324.46-23.8 325.58-23.4 326.71-23 327.8-22.29L327.8-22.29 327.41-25.29 337.06-25.95Q336.76-18.95 336.76-12.01L336.76-12.01Q336.76-10.33 336.78-8.83 336.79-7.32 336.83-5.85 336.86-4.37 336.92-2.87 336.98-1.37 337.06 0.29L337.06 0.29ZM317.79-5.1L317.79-5.1Q320.7-5.22 323.51-5.49 326.32-5.76 329.05-6.3L329.05-6.3Q328.98-9.33 328.79-12.16 328.61-14.99 328.29-17.94L328.29-17.94 326.9-17.94Q324.53-17.94 322.15-17.79 319.77-17.63 317.36-17.26L317.36-17.26Q317.06-14.7 317.06-12.11L317.06-12.11Q317.06-11.13 317.11-10.29 317.16-9.45 317.25-8.62 317.33-7.79 317.47-6.93 317.6-6.08 317.79-5.1ZM370.65-12.21L370.65-12.21Q370.65-10.16 370.16-8.44 369.67-6.71 368.82-5.3 367.96-3.88 366.83-2.81 365.69-1.73 364.39-1 363.08-0.27 361.69 0.11 360.3 0.49 358.95 0.49L358.95 0.49Q357.34 0.44 355.8 0.1L355.8 0.1Q355.15-0.05 354.43-0.28 353.71-0.51 353-0.85 352.29-1.2 351.62-1.65 350.95-2.1 350.39-2.71L350.39-2.71Q350.43-1.95 350.48-1.21 350.53-0.46 350.6 0.24L350.6 0.24 342.4 0.24Q342.4-8.54 342.16-17.55 341.91-26.56 341.35-35.3L341.35-35.3 350.6-35.84Q350.41-32.35 350.29-28.81 350.17-25.27 350.09-21.7L350.09-21.7Q350.65-22.36 351.31-22.88 351.97-23.39 352.69-23.78 353.41-24.17 354.13-24.43 354.85-24.68 355.51-24.85L355.51-24.85Q357.07-25.24 358.69-25.29L358.69-25.29Q361.49-25.29 363.72-24.39 365.94-23.49 367.47-21.8 369.01-20.12 369.83-17.69 370.65-15.26 370.65-12.21ZM350.09-18.51L350.09-16.16Q350.09-13.65 350.13-11.17 350.17-8.69 350.24-6.25L350.24-6.25Q351.17-6.13 351.98-6.05 352.8-5.98 353.6-5.94 354.39-5.91 355.17-5.88 355.95-5.86 356.81-5.86L356.81-5.86Q358.56-5.86 360.91-6.01L360.91-6.01Q361.2-8.2 361.37-10.36 361.54-12.52 361.54-14.75L361.54-14.75Q361.54-15.84 361.51-16.91 361.47-17.97 361.35-19.09L361.35-19.09Q360.03-19.21 358.91-19.29 357.78-19.36 356.76-19.36L356.76-19.36Q355.02-19.36 353.45-19.15 351.87-18.95 350.09-18.51L350.09-18.51ZM400.14-5.69L400.14-5.69Q400.14-3.54 399.04-2.11 397.94-0.68 396.16 0.18 394.38 1.05 392.11 1.4 389.84 1.76 387.49 1.76L387.49 1.76Q386.2 1.76 384.72 1.6 383.24 1.44 381.75 1.04 380.27 0.63 378.86-0.04 377.46-0.71 376.31-1.73 375.16-2.76 374.34-4.15 373.53-5.54 373.23-7.4L373.23-7.4 383.15-7.5 383.54-3.25 391.13-3.25 391.69-8.15Q390.18-8.5 388.22-8.74 386.27-8.98 384.22-9.34 382.17-9.69 380.19-10.25 378.21-10.82 376.68-11.79 375.14-12.77 374.19-14.26 373.23-15.75 373.23-17.94L373.23-17.94Q373.23-20.31 374.38-21.94 375.53-23.56 377.4-24.55 379.26-25.54 381.63-26 384-26.46 386.44-26.54L386.44-26.54Q387.74-26.54 389.24-26.39 390.74-26.25 392.23-25.87 393.72-25.49 395.1-24.83 396.48-24.17 397.56-23.16 398.65-22.14 399.34-20.72 400.04-19.29 400.14-17.36L400.14-17.36 390.54-16.94 390.54-21.75 382.29-21.75 382.29-15.26Q383.88-14.92 385.83-14.73 387.78-14.55 389.76-14.26 391.74-13.96 393.61-13.45 395.48-12.94 396.93-11.99 398.38-11.04 399.26-9.52 400.14-8.01 400.14-5.69Z" opacity="1" transform="matrix(1,0,0,1,0,0)" fill="#7dd3fc" class="wordmark-text-0" data-fill-palette-color="primary" id="text-0"></path></svg></g></svg></g></svg></g></svg></g><g transform="matrix(1,0,0,1,407.17082309974586,0)"><svg viewBox="0 0 68.20446603572087 68.20446603572087" height="68.20446603572087" width="68.20446603572087"><g data-palette-color="#38bdf8"><rect width="18.642554049763707" height="68.20446603572087" fill="#38bdf8" stroke="transparent" data-fill-palette-color="accent" x="0" fill-opacity="1"></rect><rect width="18.642554049763707" height="68.20446603572087" fill="#38bdf8" stroke="transparent" data-fill-palette-color="accent" x="22.734822011906957" fill-opacity="0.75"></rect><rect width="18.642554049763707" height="68.20446603572087" fill="#38bdf8" stroke="transparent" data-fill-palette-color="accent" x="45.46964402381391" fill-opacity="0.5"></rect></g></svg></g></svg></g><defs></defs></svg><rect width="395.52" height="56.74722902721381" fill="none" stroke="none" visibility="hidden"></rect></g></svg></g></svg>