<svg id="Capa_1" enable-background="new 0 0 495.634 495.634" height="512" viewBox="0 0 495.634 495.634" width="512" xmlns="http://www.w3.org/2000/svg"><g><path d="m264.898 1.162-151.233 293.861c-.731 1.42.3 3.109 1.897 3.109h93.3c1.26 0 2.246 1.087 2.123 2.341l-18.918 192.813c-.231 2.355 2.973 3.279 4.031 1.162l152.5-305.026c.709-1.418-.322-3.087-1.908-3.087h-90.832c-1.248 0-2.23-1.067-2.126-2.311l15.19-181.709c.193-2.326-2.955-3.229-4.024-1.153z" fill="#fee97d"/><path d="m268.921 2.316c.194-2.327-2.954-3.23-4.022-1.154l-151.234 293.861c-.731 1.42.3 3.109 1.897 3.109h93.3c1.26 0 2.246 1.087 2.123 2.341l-18.918 192.813c-.231 2.355 2.973 3.279 4.031 1.162l42.468-84.944 13.807-140.722c.123-1.254-.862-2.341-2.123-2.341h-62.063c-8.915 0-14.671-9.435-10.591-17.362l84.407-164.012z" fill="#fee45a"/><g><path d="m363.736 122.976c-1.545 0-3.104-.476-4.443-1.462-3.334-2.458-4.046-7.152-1.589-10.487l18.926-25.685c2.458-3.334 7.152-4.046 10.487-1.589 3.334 2.458 4.046 7.152 1.589 10.487l-18.926 25.685c-1.471 1.995-3.743 3.051-6.044 3.051z" fill="#fee97d"/></g><g><path d="m382.673 415.629c-2.302 0-4.573-1.056-6.044-3.051l-18.926-25.685c-2.457-3.335-1.745-8.03 1.589-10.487 3.336-2.457 8.03-1.745 10.487 1.589l18.926 25.685c2.457 3.335 1.745 8.03-1.589 10.487-1.339.986-2.898 1.462-4.443 1.462z" fill="#fee97d"/></g><g><path d="m449.583 256.46h-26.361c-4.143 0-7.5-3.358-7.5-7.5s3.357-7.5 7.5-7.5h26.361c4.143 0 7.5 3.358 7.5 7.5s-3.357 7.5-7.5 7.5z" fill="#fee97d"/></g><g><path d="m131.898 122.976c-2.302 0-4.573-1.056-6.044-3.051l-18.926-25.685c-2.457-3.335-1.746-8.03 1.589-10.487s8.03-1.745 10.487 1.589l18.926 25.685c2.457 3.335 1.746 8.03-1.589 10.487-1.339.987-2.898 1.462-4.443 1.462z" fill="#fee97d"/></g><g><path d="m112.96 415.629c-1.545 0-3.104-.476-4.443-1.462-3.334-2.458-4.046-7.152-1.589-10.487l18.926-25.685c2.458-3.334 7.153-4.045 10.487-1.589 3.334 2.458 4.046 7.152 1.589 10.487l-18.926 25.685c-1.47 1.995-3.742 3.051-6.044 3.051z" fill="#fee97d"/></g><g><path d="m72.411 256.46h-26.361c-4.142 0-7.5-3.358-7.5-7.5s3.358-7.5 7.5-7.5h26.361c4.142 0 7.5 3.358 7.5 7.5s-3.358 7.5-7.5 7.5z" fill="#fee97d"/></g></g></svg>