<?xml version="1.0" encoding="iso-8859-1"?>
<!-- Generator: Adobe Illustrator 19.0.0, SVG Export Plug-In . SVG Version: 6.00 Build 0)  -->
<svg version="1.1" id="Capa_1" xmlns="http://www.w3.org/2000/svg" xmlns:xlink="http://www.w3.org/1999/xlink" x="0px" y="0px"
	 viewBox="0 0 512.002 512.002" style="enable-background:new 0 0 512.002 512.002;" xml:space="preserve">
<g>
	<path style="fill:#2D5872;" d="M29.33,330.806l20.229-5.132v-72.249c0-17.131,2.434-33.703,8.541-54.489l-35.813-10.299
		c-7.049,24.059-9.989,44.086-9.989,64.789v86.273C17.052,335.574,22.811,332.46,29.33,330.806z"/>
	<path style="fill:#2D5872;" d="M481.41,330.806l-20.229-5.132v-72.249c0-17.131-2.434-33.703-8.541-54.489l35.813-10.299
		c7.049,24.059,9.989,44.086,9.989,64.789v86.273C493.687,335.574,487.928,332.46,481.41,330.806z"/>
</g>
<path style="fill:#FFB124;" d="M67.387,487.689l31.703-6.434L65.098,313.77l-31.703,6.434
	c-22.557,4.578-37.132,26.575-32.554,49.132l17.413,85.799C22.833,477.693,44.83,492.267,67.387,487.689z"/>
<path style="fill:#FF901E;" d="M65.098,313.77l-31.703,6.434c-2.17,0.44-4.265,1.046-6.278,1.794l33.789,166.487
	c2.145-0.096,4.31-0.355,6.48-0.796l31.703-6.434L65.098,313.77z"/>
<path style="fill:#AF8A83;" d="M136.773,489.497l-26.471,5.372c-6.113,1.241-12.074-2.709-13.315-8.822L61.05,308.977
	c-1.241-6.113,2.709-12.074,8.822-13.315l26.471-5.372c6.113-1.241,12.074,2.709,13.315,8.822l35.937,177.07
	C146.836,482.295,142.886,488.257,136.773,489.497z"/>
<path style="fill:#FFB124;" d="M444.615,487.689l-31.703-6.434l33.992-167.485l31.703,6.434
	c22.557,4.578,37.132,26.575,32.554,49.132l-17.413,85.799C489.169,477.693,467.172,492.267,444.615,487.689z"/>
<path style="fill:#FF901E;" d="M478.606,320.204l-13.497-2.739c8.581,4.296,13.578,13.945,11.572,23.799l-26.013,127.787
	c-1.708,8.391-8.006,14.613-15.688,16.683l9.634,1.955c22.557,4.578,44.554-9.997,49.132-32.554l17.413-85.799
	C515.738,346.779,501.163,324.782,478.606,320.204z"/>
<path style="fill:#AF8A83;" d="M375.229,489.497l26.471,5.372c6.113,1.241,12.074-2.709,13.315-8.822l35.937-177.07
	c1.241-6.113-2.709-12.074-8.822-13.315l-26.471-5.372c-6.113-1.241-12.074,2.709-13.315,8.822l-35.937,177.07
	C365.166,482.295,369.116,488.257,375.229,489.497z"/>
<path style="fill:#FF4C4C;" d="M446.031,206.795c-5.741,1.649-11.805-1.404-13.841-7.019
	C409.844,138.14,350.388,95.943,284.07,95.943h-56.14c-66.299,0-125.749,42.181-148.105,103.794
	c-2.037,5.615-8.102,8.667-13.843,7.016l-54.138-15.569c-6.247-1.797-9.773-8.459-7.656-14.605
	c15.083-43.774,43.257-82.922,80.238-111.181c41.516-31.725,91.139-48.494,143.503-48.494h56.14
	c52.376,0,102.007,16.775,143.527,48.512c36.986,28.271,65.159,67.433,80.234,111.222c2.116,6.146-1.412,12.808-7.66,14.603
	L446.031,206.795z"/>
<path style="fill:#F33939;" d="M289.76,57.11h-67.522c-81.947,0-158.462,63.789-183.689,141.752l27.434,7.89
	c5.74,1.651,11.805-1.401,13.843-7.016c22.356-61.613,81.807-103.794,148.105-103.794h56.14c66.318,0,125.774,42.197,148.12,103.833
	c2.036,5.615,8.1,8.669,13.841,7.019l29.569-8.495C450.083,120.566,371.533,57.11,289.76,57.11z"/>
<g>
</g>
<g>
</g>
<g>
</g>
<g>
</g>
<g>
</g>
<g>
</g>
<g>
</g>
<g>
</g>
<g>
</g>
<g>
</g>
<g>
</g>
<g>
</g>
<g>
</g>
<g>
</g>
<g>
</g>
</svg>
