<svg clip-rule="evenodd" fill-rule="evenodd" height="512" image-rendering="optimizeQuality" shape-rendering="geometricPrecision" text-rendering="geometricPrecision" viewBox="0 0 1707 1707" width="512" xmlns="http://www.w3.org/2000/svg"><g id="Layer_x0020_1"><path d="m853 1704c-13 0-26-7-33-18l-479-731c-66-100-102-217-102-338 0-339 276-614 614-614 339 0 614 275 614 614 0 121-35 238-101 339l-479 730c-8 11-20 18-34 18zm0-779c-189 0-342-154-342-342 0-189 153-343 342-343s343 154 343 343c0 188-154 342-343 342z" fill="#00ab94"/><path d="m853 237c-190 0-345 155-345 346 0 190 155 345 345 345 191 0 346-155 346-345 0-191-155-346-346-346zm0 81c-145 0-264 119-264 265 0 145 119 264 264 264 146 0 264-119 264-264 0-146-118-265-264-265z" fill="#009a85"/></g></svg>