<svg id="Capa_1" enable-background="new 0 0 512 512" viewBox="0 0 512 512" xmlns="http://www.w3.org/2000/svg"><g><path d="m411.143 85.699c-45.489-45.49-105.969-70.542-170.301-70.542s-124.812 25.052-170.3 70.542c-45.49 45.489-70.542 105.969-70.542 170.301s25.052 124.812 70.542 170.301c45.489 45.49 105.969 70.542 170.301 70.542s124.812-25.052 170.301-70.542c45.49-45.489 70.542-105.969 70.542-170.301-.001-64.332-25.053-124.812-70.543-170.301zm-366.035 170.301c0-107.928 87.807-195.734 195.734-195.734 45.27 0 86.987 15.463 120.181 41.367l-274.558 274.558c-25.903-33.195-41.357-74.921-41.357-120.191zm195.734 195.734c-45.271 0-86.996-15.454-120.192-41.356l274.57-274.57c25.902 33.195 41.357 74.921 41.357 120.191 0 107.929-87.807 195.735-195.735 195.735z" fill="#fd5426"/><g><g><g><g><path d="m411.143 85.699c-30.77-30.771-68.404-52.174-109.445-62.814 29.024 11.952 55.677 29.648 78.54 52.512 45.49 45.489 70.542 105.969 70.542 170.301s-25.052 124.812-70.542 170.301c-45.489 45.49-105.969 70.542-170.301 70.542-20.816 0-41.223-2.639-60.855-7.728 28.721 11.827 59.763 18.03 91.761 18.03 64.332 0 124.812-25.052 170.301-70.542 45.49-45.489 70.542-105.969 70.542-170.301s-25.053-124.812-70.543-170.301z" fill="#ef4424"/></g></g><g><path d="m427.091 190.974 39.618 39.618 6.48 5.023c19.018-5.087 33.027-22.431 33.027-43.053 0-7.742-6.275-14.017-14.017-14.017h-92.627l1.372 1.064c9.88.34 19.121 4.339 26.147 11.365z" fill="#ffdfcf"/></g><g><path d="m507.894 270.321-80.076-80.076c-7.491-7.491-17.652-11.7-28.246-11.7h-212.052v125.166h18.702l12.919 12.239v41.584c0 10.287 4.087 20.153 11.361 27.427l49.372 49.373c6.129 6.129 16.067 6.129 22.196 0l1.751-1.751c15.784-15.784 15.784-41.375 0-57.159l-23.074-23.073c-1.932-1.932-3.017-4.552-3.017-7.284v-6.979c0-5.69 4.612-10.302 10.302-10.302h63.675c2.732 0 5.352 1.086 7.284 3.017l57.057 57.058c17.405 17.406 45.625 17.406 63.031.002 5.473-5.473 5.475-14.352.002-19.825l-16.55-16.55c12.595 1.033 25.545-3.258 35.181-12.894 5.474-5.474 5.474-14.349 0-19.823l-15.912-15.914c9.538-1.162 18.773-5.392 26.094-12.713 5.475-5.474 5.475-14.349 0-19.823z" fill="#ffdfcf"/></g><g><path d="m492.199 178.545h-26.532c7.742 0 14.017 6.275 14.017 14.017 0 13.948-6.413 26.389-16.445 34.56l3.47 3.47 6.48 5.023c19.018-5.087 33.027-22.431 33.027-43.053 0-7.741-6.276-14.017-14.017-14.017z" fill="#ffcebf"/></g><g><g><path d="m507.894 270.321-80.076-80.076c-7.491-7.491-17.652-11.7-28.246-11.7h-14.359l91.776 91.776c5.474 5.474 5.474 14.349 0 19.823-4.705 4.706-10.205 8.128-16.064 10.289 15.814 5.834 34.269 2.412 46.969-10.289 5.475-5.474 5.475-14.349 0-19.823z" fill="#ffcebf"/></g></g><g><path d="m177.994 327.679h-167.438c-5.83 0-10.556-4.726-10.556-10.556v-151.99c0-5.83 4.726-10.556 10.556-10.556h167.438c5.83 0 10.556 4.726 10.556 10.556v151.99c0 5.83-4.726 10.556-10.556 10.556z" fill="#838383"/></g><g><path d="m177.994 154.577h-30.651v121.339c0 5.83-4.726 10.556-10.556 10.556h-136.787v30.651c0 5.83 4.726 10.556 10.556 10.556h167.439c5.83 0 10.556-4.726 10.556-10.556v-151.99c-.001-5.83-4.727-10.556-10.557-10.556z" fill="#5a5a5a"/></g><g><g><path d="m497.712 318.77-80.076-80.076c-7.491-7.491-17.652-11.7-28.246-11.7h-2.288c-4.454 0-6.685 5.386-3.536 8.536l83.241 83.24c5.474 5.474 5.474 14.349 0 19.823-4.705 4.706-10.205 8.128-16.064 10.289 15.814 5.834 34.269 2.412 46.969-10.289 5.474-5.474 5.474-14.35 0-19.823z" fill="#ffcebf"/></g><g><g><path d="m280.747 352.35c-1.932-1.932-3.017-4.552-3.017-7.284v-6.979c0-5.69 4.612-10.302 10.302-10.302h-30.905c-5.69 0-10.302 4.612-10.302 10.302v6.979c0 2.732 1.085 5.353 3.017 7.284l23.074 23.073c14.906 14.906 15.727 38.553 2.481 54.432l4.478 4.478c6.129 6.129 16.067 6.129 22.196 0l1.751-1.751c15.784-15.784 15.784-41.375 0-57.159z" fill="#ffcebf"/></g><g><path d="m479.082 368.037-87.14-87.14c-7.491-7.491-17.652-11.7-28.246-11.7h-2.288c-4.455 0-6.685 5.386-3.536 8.536l90.305 90.305c5.386 5.386 5.573 14.173.225 19.597-4.755 4.822-10.336 8.319-16.288 10.515 15.902 5.866 34.475 2.373 47.181-10.502 5.354-5.428 5.177-14.22-.213-19.611z" fill="#ffcebf"/></g></g></g><g><g><path d="m361.034 101.622-274.569 274.569c9.948 12.749 21.437 24.238 34.186 34.186l274.569-274.568c-9.948-12.75-21.437-24.239-34.186-34.187z" fill="#ef4424"/></g></g><g><path d="m86.061 293.127h-46.358c-2.845 0-5.151-2.306-5.151-5.151v-28.845c0-2.845 2.306-5.151 5.151-5.151h46.358c2.845 0 5.151 2.306 5.151 5.151v28.845c0 2.845-2.306 5.151-5.151 5.151z" fill="#fedf30"/></g><g><path d="m86.061 253.98h-12.219v16.626c0 2.845-2.306 5.151-5.151 5.151h-34.139v12.219c0 2.845 2.306 5.151 5.151 5.151h46.358c2.845 0 5.151-2.306 5.151-5.151v-28.845c0-2.844-2.306-5.151-5.151-5.151z" fill="#fed402"/></g></g></g></g><g/><g/><g/><g/><g/><g/><g/><g/><g/><g/><g/><g/><g/><g/><g/></svg>